<svg width="35" height="30" viewBox="0 0 35 30" fill="none" xmlns="http://www.w3.org/2000/svg">
<path d="M10.9375 28.125C12.1456 28.125 13.125 27.2855 13.125 26.25C13.125 25.2145 12.1456 24.375 10.9375 24.375C9.72938 24.375 8.75 25.2145 8.75 26.25C8.75 27.2855 9.72938 28.125 10.9375 28.125Z" fill="white"/>
<path d="M26.25 28.125C27.4581 28.125 28.4375 27.2855 28.4375 26.25C28.4375 25.2145 27.4581 24.375 26.25 24.375C25.0419 24.375 24.0625 25.2145 24.0625 26.25C24.0625 27.2855 25.0419 28.125 26.25 28.125Z" fill="white"/>
<path d="M30.625 6.56245H6.36563L5.46875 2.62495C5.41762 2.41 5.28016 2.21723 5.08031 2.08019C4.88047 1.94315 4.63088 1.87052 4.375 1.87495H0V3.74995H3.47813L7.65625 21.7499C7.70738 21.9649 7.84484 22.1577 8.04469 22.2947C8.24454 22.4317 8.49412 22.5044 8.75 22.4999H28.4375V20.6249H9.64687L8.75 16.8749H28.4375C28.6903 16.8802 28.9375 16.8103 29.1369 16.6769C29.3363 16.5436 29.4757 16.3552 29.5312 16.1437L31.7188 7.7062C31.7554 7.5671 31.7545 7.42266 31.7163 7.28388C31.678 7.14511 31.6032 7.01565 31.4978 6.90536C31.3923 6.79507 31.2589 6.70685 31.1076 6.64743C30.9564 6.58801 30.7913 6.55894 30.625 6.56245ZM27.5625 14.9999H8.33437L6.80312 8.43745H29.2578L27.5625 14.9999Z" fill="white"/>
</svg>
