<svg width="163" height="35" viewBox="0 0 163 35" fill="none" xmlns="http://www.w3.org/2000/svg">
<path d="M17 4L31.7224 17.5H2.27757L17 4Z" fill="#FF9F1C"/>
<path d="M17 31L2.27757 17.5H31.7224L17 31Z" fill="#FF9F1C"/>
<path d="M56.5 10.55V13.375H49.225V17.85H54.8V20.625H49.225V28H45.725V10.55H56.5ZM62.4818 9.5V28H58.9818V9.5H62.4818ZM65.0398 21.025C65.0398 19.625 65.3148 18.3833 65.8648 17.3C66.4315 16.2167 67.1898 15.3833 68.1398 14.8C69.1065 14.2167 70.1815 13.925 71.3648 13.925C72.3982 13.925 73.2982 14.1333 74.0648 14.55C74.8482 14.9667 75.4732 15.4917 75.9398 16.125V14.15H79.4648V28H75.9398V25.975C75.4898 26.625 74.8648 27.1667 74.0648 27.6C73.2815 28.0167 72.3732 28.225 71.3398 28.225C70.1732 28.225 69.1065 27.925 68.1398 27.325C67.1898 26.725 66.4315 25.8833 65.8648 24.8C65.3148 23.7 65.0398 22.4417 65.0398 21.025ZM75.9398 21.075C75.9398 20.225 75.7732 19.5 75.4398 18.9C75.1065 18.2833 74.6565 17.8167 74.0898 17.5C73.5232 17.1667 72.9148 17 72.2648 17C71.6148 17 71.0148 17.1583 70.4648 17.475C69.9148 17.7917 69.4648 18.2583 69.1148 18.875C68.7815 19.475 68.6148 20.1917 68.6148 21.025C68.6148 21.8583 68.7815 22.5917 69.1148 23.225C69.4648 23.8417 69.9148 24.3167 70.4648 24.65C71.0315 24.9833 71.6315 25.15 72.2648 25.15C72.9148 25.15 73.5232 24.9917 74.0898 24.675C74.6565 24.3417 75.1065 23.875 75.4398 23.275C75.7732 22.6583 75.9398 21.925 75.9398 21.075ZM96.1332 14.15L87.5582 34.55H83.8332L86.8332 27.65L81.2832 14.15H85.2082L88.7832 23.825L92.4082 14.15H96.1332ZM101.52 16.3C101.97 15.5667 102.553 14.9917 103.27 14.575C104.003 14.1583 104.837 13.95 105.77 13.95V17.625H104.845C103.745 17.625 102.912 17.8833 102.345 18.4C101.795 18.9167 101.52 19.8167 101.52 21.1V28H98.0199V14.15H101.52V16.3Z" fill="#011627"/>
</svg>
